REM DIRINDEX 1\2\4,1\2\5,1\2\6,1\2\7,1\3\8,1\3\9
REM DIRNAME cjc037,folder01,folder02,folder03,folder04,folder05,folder06,folder07,folder08
TITLE ""
FILE "Disc2Track10.mp3" MP3
  TRACK 01 AUDIO
    TITLE "0:"
    INDEX 01 00:00:00
  TRACK 02 AUDIO
    TITLE "8:cjc037_1231"
    INDEX 01 00:00:05
  TRACK 03 AUDIO
    TITLE "0:"
    INDEX 01 00:01:26
  TRACK 04 AUDIO
    TITLE "9:cjc037_1232"
    INDEX 01 00:01:30
  TRACK 05 AUDIO
    TITLE "0:"
    INDEX 01 00:03:35
  TRACK 06 AUDIO
    TITLE "8:cjc037_1233"
    INDEX 01 00:05:69
  TRACK 07 AUDIO
    TITLE "0:"
    INDEX 01 00:07:11
  TRACK 08 AUDIO
    TITLE "9:cjc037_1234"
    INDEX 01 00:07:17
  TRACK 09 AUDIO
    TITLE "0:"
    INDEX 01 00:09:14
  TRACK 10 AUDIO
    TITLE "8:cjc037_1235"
    INDEX 01 00:11:48
  TRACK 11 AUDIO
    TITLE "0:"
    INDEX 01 00:13:00
  TRACK 12 AUDIO
    TITLE "9:cjc037_1236"
    INDEX 01 00:13:04
  TRACK 13 AUDIO
    TITLE "0:"
    INDEX 01 00:15:05
  TRACK 14 AUDIO
    TITLE "8:cjc037_1237"
    INDEX 01 00:17:39
  TRACK 15 AUDIO
    TITLE "0:"
    INDEX 01 00:18:62
  TRACK 16 AUDIO
    TITLE "9:cjc037_1238"
    INDEX 01 00:18:64
  TRACK 17 AUDIO
    TITLE "0:"
    INDEX 01 00:21:23
  TRACK 18 AUDIO
    TITLE "8:cjc037_1239"
    INDEX 01 00:23:55
  TRACK 19 AUDIO
    TITLE "0:"
    INDEX 01 00:25:09
  TRACK 20 AUDIO
    TITLE "9:cjc037_1240"
    INDEX 01 00:25:11
  TRACK 21 AUDIO
    TITLE "0:"
    INDEX 01 00:26:71
  TRACK 22 AUDIO
    TITLE "8:cjc037_1241"
    INDEX 01 00:29:31
  TRACK 23 AUDIO
    TITLE "0:"
    INDEX 01 00:30:59
  TRACK 24 AUDIO
    TITLE "9:cjc037_1242"
    INDEX 01 00:30:65
  TRACK 25 AUDIO
    TITLE "0:"
    INDEX 01 00:32:62
  TRACK 26 AUDIO
    TITLE "8:cjc037_1243"
    INDEX 01 00:35:19
  TRACK 27 AUDIO
    TITLE "0:"
    INDEX 01 00:36:50
  TRACK 28 AUDIO
    TITLE "9:cjc037_1244"
    INDEX 01 00:36:54
  TRACK 29 AUDIO
    TITLE "0:"
    INDEX 01 00:39:07
  TRACK 30 AUDIO
    TITLE "8:cjc037_1245"
    INDEX 01 00:41:44
  TRACK 31 AUDIO
    TITLE "0:"
    INDEX 01 00:42:68
  TRACK 32 AUDIO
    TITLE "9:cjc037_1246"
    INDEX 01 00:42:74
  TRACK 33 AUDIO
    TITLE "0:"
    INDEX 01 00:45:14
  TRACK 34 AUDIO
    TITLE "8:cjc037_1247"
    INDEX 01 00:47:48
  TRACK 35 AUDIO
    TITLE "0:"
    INDEX 01 00:49:02
  TRACK 36 AUDIO
    TITLE "9:cjc037_1248"
    INDEX 01 00:49:06
  TRACK 37 AUDIO
    TITLE "0:"
    INDEX 01 00:50:74
  TRACK 38 AUDIO
    TITLE "8:cjc037_1249"
    INDEX 01 00:53:35
  TRACK 39 AUDIO
    TITLE "0:"
    INDEX 01 00:54:56
  TRACK 40 AUDIO
    TITLE "9:cjc037_1250"
    INDEX 01 00:54:62
  TRACK 41 AUDIO
    TITLE "0:"
    INDEX 01 00:56:35
  TRACK 42 AUDIO
    TITLE "8:cjc037_1251"
    INDEX 01 00:58:71
  TRACK 43 AUDIO
    TITLE "0:"
    INDEX 01 01:00:23
  TRACK 44 AUDIO
    TITLE "9:cjc037_1252"
    INDEX 01 01:00:27
  TRACK 45 AUDIO
    TITLE "0:"
    INDEX 01 01:02:08
  TRACK 46 AUDIO
    TITLE "8:cjc037_1253"
    INDEX 01 01:04:41
  TRACK 47 AUDIO
    TITLE "0:"
    INDEX 01 01:05:71
  TRACK 48 AUDIO
    TITLE "9:cjc037_1254"
    INDEX 01 01:06:02
  TRACK 49 AUDIO
    TITLE "0:"
    INDEX 01 01:07:59
  TRACK 50 AUDIO
    TITLE "8:cjc037_1255"
    INDEX 01 01:10:18
  TRACK 51 AUDIO
    TITLE "0:"
    INDEX 01 01:11:56
  TRACK 52 AUDIO
    TITLE "9:cjc037_1256"
    INDEX 01 01:11:62
  TRACK 53 AUDIO
    TITLE "0:"
    INDEX 01 01:13:44
  TRACK 54 AUDIO
    TITLE "8:cjc037_1257"
    INDEX 01 01:16:05
  TRACK 55 AUDIO
    TITLE "0:"
    INDEX 01 01:17:41
  TRACK 56 AUDIO
    TITLE "9:cjc037_1258"
    INDEX 01 01:17:47
  TRACK 57 AUDIO
    TITLE "0:"
    INDEX 01 01:20:26
  TRACK 58 AUDIO
    TITLE "8:cjc037_1259"
    INDEX 01 01:22:58
  TRACK 59 AUDIO
    TITLE "0:"
    INDEX 01 01:24:20
  TRACK 60 AUDIO
    TITLE "9:cjc037_1260"
    INDEX 01 01:24:24
  TRACK 61 AUDIO
    TITLE "0:"
    INDEX 01 01:26:23
  TRACK 62 AUDIO
    TITLE "8:cjc037_1261"
    INDEX 01 01:28:57
  TRACK 63 AUDIO
    TITLE "0:"
    INDEX 01 01:30:20
  TRACK 64 AUDIO
    TITLE "9:cjc037_1262"
    INDEX 01 01:30:24
  TRACK 65 AUDIO
    TITLE "0:"
    INDEX 01 01:32:13
  TRACK 66 AUDIO
    TITLE "8:cjc037_1263"
    INDEX 01 01:34:48
  TRACK 67 AUDIO
    TITLE "0:"
    INDEX 01 01:36:15
  TRACK 68 AUDIO
    TITLE "9:cjc037_1264"
    INDEX 01 01:36:21
  TRACK 69 AUDIO
    TITLE "0:"
    INDEX 01 01:38:02
